<?xml version="1.0" encoding="UTF-8" standalone="no"?>
<svg
   width="535"
   height="535"
   viewBox="0 0 501.56251 501.56249"
   version="1.1"
   xmlns:xlink="http://www.w3.org/1999/xlink"
   xmlns="http://www.w3.org/2000/svg">
  <defs>
    <linearGradient id="linearGradient5562">
      <stop style="stop-color:#699ad7;stop-opacity:1" offset="0" />
      <stop offset="0.24345198" style="stop-color:#7eb1dd;stop-opacity:1" />
      <stop style="stop-color:#7ebae4;stop-opacity:1" offset="1" />
    </linearGradient>
    <linearGradient id="linearGradient5053">
      <stop style="stop-color:#415e9a;stop-opacity:1" offset="0" />
      <stop offset="0.23168644" style="stop-color:#4a6baf;stop-opacity:1" />
      <stop style="stop-color:#5277c3;stop-opacity:1" offset="1" />
    </linearGradient>
    <linearGradient
       xlink:href="#linearGradient5562"
       id="linearGradient4328"
       gradientUnits="userSpaceOnUse"
       gradientTransform="translate(70.650339,-1055.1511)"
       x1="200.59668"
       y1="351.41116"
       x2="290.08701"
       y2="506.18814" />
    <linearGradient
       xlink:href="#linearGradient5053"
       id="linearGradient4330"
       gradientUnits="userSpaceOnUse"
       gradientTransform="translate(864.69589,-1491.3405)"
       x1="-584.19934"
       y1="782.33563"
       x2="-496.29703"
       y2="937.71399" />
  </defs>
  <g transform="translate(-156.41121,933.30685)">
    <g transform="matrix(0.99994059,0,0,0.99994059,-0.06321798,33.188377)">
      <path
         id="path3336-6"
         d="m 309.54892,-710.38827 122.19683,211.67512 -56.15706,0.5268 -32.6236,-56.8692 -32.85645,56.5653 -27.90237,-0.011 -14.29086,-24.6896 46.81047,-80.4901 -33.22946,-57.8257 z"
         style="fill:url(#linearGradient4328);fill-opacity:1;fill-rule:evenodd;stroke:none" />
      <use transform="rotate(60,407.11155,-715.78724)" xlink:href="#path3336-6" />
      <use transform="rotate(-60,407.31177,-715.70016)" xlink:href="#path3336-6" />
      <use transform="rotate(180,407.41868,-715.7565)" xlink:href="#path3336-6" />
      <path
         id="path4260-0"
         style="fill:url(#linearGradient4330);fill-opacity:1;fill-rule:evenodd;stroke:none"
         d="m 309.54892,-710.38827 122.19683,211.67512 -56.15706,0.5268 -32.6236,-56.8692 -32.85645,56.5653 -27.90237,-0.011 -14.29086,-24.6896 46.81047,-80.4901 -33.22946,-57.8256 z" />
      <use transform="rotate(120,407.33916,-716.08356)" xlink:href="#path4260-0" />
      <use transform="rotate(-120,407.28823,-715.86995)" xlink:href="#path4260-0" />
    </g>
  </g>
</svg>
